<?xml version="1.0" encoding="UTF-8"?>
<svg width="46px" height="52px" viewBox="0 0 46 52" version="1.1" xmlns="http://www.w3.org/2000/svg" xmlns:xlink="http://www.w3.org/1999/xlink">
    <!-- Generator: Sketch 50.2 (55047) - http://www.bohemiancoding.com/sketch -->
    <title>Combined Shape</title>
    <desc>Created with Sketch.</desc>
    <defs></defs>
    <g id="20180625" stroke="none" stroke-width="1" fill="none" fill-rule="evenodd">
        <g id="首页-新增大厦服务" transform="translate(-56.000000, -802.000000)" fill="#019B66">
            <path d="M62.5,843 L66,843 L66,846 L62.5,846 L62.5,854 L60,854 L60,846 L56,846 L56,843 L60,843 L60,802 L62.5,802 L62.5,843 Z M98.5,823 L102,823 L102,826 L98.5,826 L98.5,854 L96,854 L96,826 L92,826 L92,823 L96,823 L96,802 L98.5,802 L98.5,823 Z M80.5,813 L84,813 L84,816 L80.5,816 L80.5,854 L78,854 L78,816 L74,816 L74,813 L78,813 L78,802 L80.5,802 L80.5,813 Z" id="Combined-Shape"></path>
        </g>
    </g>
</svg>