<?xml version="1.0" encoding="UTF-8"?>
<svg width="50px" height="34px" viewBox="0 0 50 34" version="1.1" xmlns="http://www.w3.org/2000/svg" xmlns:xlink="http://www.w3.org/1999/xlink">
    <!-- Generator: Sketch 50.2 (55047) - http://www.bohemiancoding.com/sketch -->
    <title>Group 2</title>
    <desc>Created with Sketch.</desc>
    <defs></defs>
    <g id="20180625" stroke="none" stroke-width="1" fill="none" fill-rule="evenodd">
        <g id="首页-新增大厦服务" transform="translate(-535.000000, -959.000000)" fill="#FFFFFF" stroke-width="2.5">
            <g id="Group-2" transform="translate(535.000000, 958.000000)">
                <path d="M3.81166476,2.42839906 C3.56120491,2.29727734 3.28270664,2.22878621 3,2.22878621 C2.03350169,2.22878621 1.25,3.0122879 1.25,3.97878621 L1.25,32.020625 C1.25,32.3033316 1.31849113,32.5818299 1.44961285,32.8322897 C1.89788292,33.6885449 2.95540958,34.0192822 3.81166476,33.5710121 L22.8116648,23.6240576 C23.3885104,23.3220651 23.75,22.7247852 23.75,22.0736705 L23.75,13.9257407 C23.75,13.2746259 23.3885104,12.6773461 22.8116648,12.3753535 L3.81166476,2.42839906 Z" id="Rectangle-9" stroke="#019B66" fill-opacity="0"></path>
                <path d="M45.6204318,2.4973017 L27.396016,12.1712335 C26.6923339,12.5447639 26.25,13.2837034 26.25,14.0907334 L26.25,21.9085761 C26.25,22.7156061 26.6923339,23.4545456 27.396016,23.828076 L45.6204318,33.5020078 C46.6621242,34.0549617 47.9508677,33.651582 48.5019449,32.5955694 C48.6648,32.2834953 48.75,31.9357304 48.75,31.582508 L48.75,4.41680155 C48.75,3.21773551 47.7904808,2.25 46.6122079,2.25 C46.2668613,2.25 45.9265476,2.33480851 45.6204318,2.4973017 Z" id="Rectangle-9-Copy" stroke="#019B66" fill-opacity="0"></path>
                <rect id="Rectangle-8-Copy" stroke="#020202" x="18.25" y="11.25" width="13.5" height="13.5" rx="4"></rect>
            </g>
        </g>
    </g>
</svg>